<mxfile host="app.diagrams.net" modified="2023-08-12T10:12:30.917Z" agent="Mozilla/5.0 (Windows NT 10.0; Win64; x64) AppleWebKit/537.36 (KHTML, like Gecko) Chrome/116.0.0.0 Safari/537.36" version="21.6.6" etag="d_-6rcxG89PxENrPZbRH" type="github">
  <diagram name="第 1 页" id="xjnAfLi7zPT1HdxoX3KX">
    <mxGraphModel>
      <root>
        <mxCell id="0" />
        <mxCell id="1" parent="0" />
      </root>
    </mxGraphModel>
  </diagram>
</mxfile>
